<mxfile host="65bd71144e">
    <diagram id="HIP3nbAZw_EuaXWnEj3U" name="Page-1">
        <mxGraphModel dx="1348" dy="860" grid="1" gridSize="10" guides="1" tooltips="1" connect="1" arrows="1" fold="1" page="1" pageScale="1" pageWidth="850" pageHeight="1100" math="0" shadow="0">
            <root>
                <mxCell id="0"/>
                <mxCell id="1" parent="0"/>
                <mxCell id="7" value="http://ics2o.mths.ca" style="swimlane;whiteSpace=wrap;html=1;" parent="1" vertex="1">
                    <mxGeometry x="40" y="40" width="760" height="480" as="geometry"/>
                </mxCell>
                <mxCell id="8" value="http://ics2o.mths.ca" style="swimlane;whiteSpace=wrap;html=1;" vertex="1" parent="1">
                    <mxGeometry x="40" y="40" width="760" height="480" as="geometry"/>
                </mxCell>
                <mxCell id="9" value="&lt;span style=&quot;font-size: 26px;&quot;&gt;Volume of a Pyramid, with JS&lt;/span&gt;" style="text;html=1;align=center;verticalAlign=middle;resizable=0;points=[];autosize=1;strokeColor=none;fillColor=none;" vertex="1" parent="8">
                    <mxGeometry x="10" y="40" width="360" height="40" as="geometry"/>
                </mxCell>
                <mxCell id="10" value="&lt;font color=&quot;#000000&quot;&gt;&lt;font style=&quot;font-size: 19px;&quot;&gt;&lt;span style=&quot;font-size: 19px;&quot;&gt;Formulas&lt;/span&gt;&lt;br&gt;&lt;font style=&quot;font-size: 19px;&quot;&gt;V = ( L&amp;nbsp;&lt;/font&gt;&lt;/font&gt;&lt;span style=&quot;font-size: 19px;&quot;&gt;&lt;font style=&quot;font-size: 19px;&quot;&gt;× W&amp;nbsp;&lt;/font&gt;&lt;/span&gt;&lt;font style=&quot;font-size: 19px;&quot;&gt;× H ) / 3&lt;/font&gt;&lt;/font&gt;" style="text;html=1;align=left;verticalAlign=middle;resizable=0;points=[];autosize=1;strokeColor=none;fillColor=none;fontSize=26;" vertex="1" parent="8">
                    <mxGeometry x="20" y="80" width="190" height="80" as="geometry"/>
                </mxCell>
                <mxCell id="11" value="&lt;font style=&quot;font-size: 19px;&quot;&gt;Please enter integers for dimensions :&lt;br&gt;&lt;/font&gt;" style="text;html=1;align=left;verticalAlign=middle;resizable=0;points=[];autosize=1;strokeColor=none;fillColor=none;fontSize=26;" vertex="1" parent="8">
                    <mxGeometry x="20" y="160" width="340" height="40" as="geometry"/>
                </mxCell>
                <mxCell id="12" value="&lt;font style=&quot;font-size: 19px;&quot;&gt;Length :&lt;br&gt;Width:&lt;br&gt;Height&amp;nbsp;&lt;br&gt;&lt;/font&gt;" style="text;html=1;align=left;verticalAlign=middle;resizable=0;points=[];autosize=1;strokeColor=none;fillColor=none;fontSize=26;" vertex="1" parent="8">
                    <mxGeometry x="20" y="195" width="90" height="110" as="geometry"/>
                </mxCell>
                <mxCell id="13" value="3.2" style="rounded=1;whiteSpace=wrap;html=1;fontSize=19;" vertex="1" parent="8">
                    <mxGeometry x="100" y="210" width="140" height="20" as="geometry"/>
                </mxCell>
                <mxCell id="14" value="5.8" style="rounded=1;whiteSpace=wrap;html=1;fontSize=19;" vertex="1" parent="8">
                    <mxGeometry x="100" y="240" width="140" height="20" as="geometry"/>
                </mxCell>
                <mxCell id="15" value="3.4" style="rounded=1;whiteSpace=wrap;html=1;fontSize=19;" vertex="1" parent="8">
                    <mxGeometry x="100" y="270" width="140" height="20" as="geometry"/>
                </mxCell>
                <mxCell id="16" value="&lt;font style=&quot;font-size: 19px;&quot;&gt;&amp;nbsp;mm&lt;br&gt;&amp;nbsp;mm&lt;br&gt;&amp;nbsp;mm&amp;nbsp;&lt;br&gt;&lt;/font&gt;" style="text;html=1;align=left;verticalAlign=middle;resizable=0;points=[];autosize=1;strokeColor=none;fillColor=none;fontSize=26;" vertex="1" parent="8">
                    <mxGeometry x="250" y="195" width="70" height="110" as="geometry"/>
                </mxCell>
                <mxCell id="17" value="Calculate Area" style="rounded=1;whiteSpace=wrap;html=1;fontSize=19;" vertex="1" parent="8">
                    <mxGeometry x="20" y="330" width="140" height="20" as="geometry"/>
                </mxCell>
                <mxCell id="18" value="&lt;font style=&quot;font-size: 19px;&quot;&gt;Volume is : 21.03 mm&lt;sup&gt;3&lt;/sup&gt;&lt;br&gt;&lt;/font&gt;" style="text;html=1;align=left;verticalAlign=middle;resizable=0;points=[];autosize=1;strokeColor=none;fillColor=none;fontSize=26;" vertex="1" parent="8">
                    <mxGeometry x="20" y="360" width="210" height="40" as="geometry"/>
                </mxCell>
                <mxCell id="22" value="" style="shape=image;verticalLabelPosition=bottom;labelBackgroundColor=default;verticalAlign=top;aspect=fixed;imageAspect=0;image=https://www.symbolab.com/public/img/geometry/rectangular_pyramid.png;" vertex="1" parent="8">
                    <mxGeometry x="420" y="91.1" width="294" height="268.9" as="geometry"/>
                </mxCell>
            </root>
        </mxGraphModel>
    </diagram>
</mxfile>